<svg width="801" height="696" viewBox="0 0 801 696" fill="none" xmlns="http://www.w3.org/2000/svg">
<g id="undraw_bike_ride_7xit 1" clip-path="url(#clip0_2_74)">
<g id="man-bike">
<path id="Vector" d="M241.267 690.17L241.196 690.52L241.176 690.6C241.176 690.57 241.167 690.55 241.167 690.52C241.147 690.39 241.136 690.26 241.117 690.13C241.166 690.14 241.216 690.16 241.267 690.17Z" fill="#F2F2F2"/>
<path id="Vector_2" d="M232.626 693.02C231.957 691.97 231.287 690.93 230.626 689.88C230.057 688.99 229.497 688.1 228.937 687.21C228.796 686.99 228.657 686.78 228.537 686.56C230.376 687.13 232.223 687.677 234.077 688.2C234.227 688.45 234.386 688.71 234.557 688.96C235.006 689.67 235.457 690.39 235.916 691.1C235.986 691.22 236.046 691.33 236.097 691.44C236.886 693.37 233.876 694.96 232.626 693.02Z" fill="white"/>
<path id="Vector_3" d="M226.146 690.99C226.097 690.92 226.046 690.84 225.997 690.77C226.026 690.76 226.046 690.76 226.077 690.75L226.146 690.99Z" fill="#F2F2F2"/>
<path id="Vector_4" d="M558.986 690.17L559.057 690.52L559.077 690.6C559.077 690.57 559.086 690.55 559.086 690.52C559.106 690.39 559.117 690.26 559.136 690.13C559.086 690.14 559.037 690.16 558.986 690.17Z" fill="#F2F2F2"/>
<path id="Vector_5" d="M567.626 693.02C568.296 691.97 568.966 690.93 569.626 689.88C570.196 688.99 570.756 688.1 571.316 687.21C571.457 686.99 571.596 686.78 571.716 686.56C569.876 687.13 568.03 687.677 566.176 688.2C566.026 688.45 565.867 688.71 565.696 688.96C565.247 689.67 564.796 690.39 564.336 691.1C564.267 691.22 564.206 691.33 564.156 691.44C563.367 693.37 566.376 694.96 567.626 693.02Z" fill="white"/>
<path id="Vector_6" d="M574.106 690.99C574.156 690.92 574.206 690.84 574.256 690.77C574.227 690.76 574.206 690.76 574.176 690.75L574.106 690.99Z" fill="#F2F2F2"/>
<path id="Vector_7" d="M368.995 357.486C368.185 357.76 367.438 358.192 366.796 358.757C366.155 359.322 365.632 360.009 365.258 360.777L360.122 371.223L358.747 374.016C357.987 375.563 357.872 377.348 358.426 378.979C358.98 380.611 360.159 381.957 361.703 382.721L401.505 402.303L472.089 437.014C473.563 437.737 475.255 437.877 476.827 437.406C478.399 436.934 479.735 435.886 480.568 434.472C480.651 434.333 480.721 434.2 480.795 434.058L484.727 426.065L487.309 420.81C487.518 420.39 487.68 419.949 487.792 419.493C488.086 418.288 488.03 417.023 487.631 415.848C487.357 415.038 486.926 414.29 486.361 413.649C485.796 413.007 485.109 412.484 484.34 412.11L475.925 407.969L413.678 377.353L373.958 357.808C372.412 357.047 370.627 356.931 368.995 357.486V357.486Z" fill="#6C63FF"/>
<path id="Vector_8" d="M356.681 361.363C355.939 362.395 355.307 363.501 354.797 364.664C352.822 369.154 352.708 374.243 354.48 378.816C356.252 383.39 359.766 387.074 364.25 389.06L395.355 402.79C396.341 403.223 397.418 403.404 398.491 403.319C399.564 403.234 400.6 402.885 401.505 402.303C402.242 401.827 402.874 401.206 403.361 400.477C403.58 400.159 403.769 399.822 403.926 399.469L413.618 377.513C413.643 377.462 413.663 377.408 413.678 377.353C414.322 375.787 414.329 374.031 413.697 372.46C413.066 370.889 411.846 369.627 410.297 368.942L379.193 355.211C375.304 353.5 370.945 353.178 366.846 354.298C362.748 355.418 359.159 357.912 356.681 361.363Z" fill="#2F2E41"/>
<path id="Vector_9" d="M441.946 461.24H427.187C425.463 461.242 423.811 461.927 422.592 463.146C421.374 464.364 420.688 466.017 420.687 467.74V559.75C420.688 561.473 421.373 563.126 422.592 564.344C423.811 565.563 425.463 566.248 427.187 566.25H441.946C442.8 566.25 443.645 566.082 444.434 565.755C445.222 565.429 445.939 564.95 446.543 564.346C447.146 563.743 447.625 563.026 447.952 562.237C448.278 561.449 448.446 560.604 448.446 559.75V467.74C448.446 466.886 448.278 466.041 447.952 465.253C447.625 464.464 447.146 463.747 446.543 463.144C445.939 462.54 445.222 462.061 444.434 461.735C443.645 461.408 442.8 461.24 441.946 461.24V461.24Z" fill="#6C63FF"/>
<path id="Vector_10" d="M432.841 494.612C431.765 494.612 430.698 494.411 429.697 494.018L347.477 461.852C345.287 460.965 343.539 459.246 342.615 457.072C341.691 454.898 341.667 452.446 342.548 450.254L349.583 432.272C350.439 430.054 352.135 428.263 354.302 427.286C355.36 426.801 356.505 426.535 357.668 426.503C358.832 426.471 359.99 426.673 361.073 427.099L443.293 459.266C444.377 459.689 445.365 460.326 446.198 461.139C447.03 461.952 447.691 462.924 448.14 463.998C449.069 466.186 449.098 468.652 448.222 470.862L441.187 488.845C440.535 490.533 439.391 491.985 437.902 493.014C436.414 494.043 434.65 494.6 432.841 494.612V494.612Z" fill="#CCCCCC"/>
<path id="Vector_11" d="M442.378 572H426.378C424.92 572 423.521 571.421 422.489 570.389C421.458 569.358 420.878 567.959 420.878 566.5C420.878 565.041 421.458 563.642 422.489 562.611C423.521 561.579 424.92 561 426.378 561H442.378C443.837 561 445.236 561.579 446.268 562.611C447.299 563.642 447.878 565.041 447.878 566.5C447.878 567.959 447.299 569.358 446.268 570.389C445.236 571.421 443.837 572 442.378 572Z" fill="#2F2E41"/>
<path id="Vector_12" d="M316.493 472.314C314.483 472.33 312.477 472.118 310.514 471.683C301.637 469.634 298.359 465.738 297.822 463.759C297.704 463.456 297.672 463.127 297.729 462.808C297.786 462.488 297.931 462.191 298.147 461.949C298.37 461.758 298.642 461.636 298.933 461.595C299.223 461.555 299.519 461.599 299.785 461.721C302.542 462.642 341.632 454.912 355.514 451.708C361.287 450.376 365.339 450.596 367.557 452.36C368.008 452.692 368.381 453.117 368.652 453.606C368.922 454.096 369.084 454.638 369.126 455.195V455.543L341.825 465.655C340.941 466.094 328.22 472.314 316.493 472.314Z" fill="#2F2E41"/>
<path id="Vector_13" d="M530.305 592.81C530.111 592.81 529.921 592.753 529.758 592.647C529.595 592.541 529.467 592.389 529.389 592.211L477.882 475.055C477.645 474.511 477.252 474.051 476.752 473.732C476.252 473.413 475.668 473.25 475.075 473.264L334.143 476.14C333.639 476.149 333.146 476.285 332.709 476.536C332.272 476.787 331.906 477.144 331.644 477.575L264.007 588.178C263.869 588.404 263.646 588.566 263.388 588.628C263.131 588.69 262.859 588.648 262.633 588.509C262.406 588.371 262.244 588.148 262.182 587.891C262.12 587.633 262.163 587.361 262.301 587.135L329.938 476.531C330.374 475.814 330.985 475.219 331.713 474.801C332.44 474.383 333.262 474.155 334.102 474.14L475.034 471.264C476.022 471.244 476.993 471.517 477.826 472.048C478.659 472.58 479.315 473.346 479.713 474.25L531.22 591.407C531.287 591.559 531.315 591.725 531.301 591.891C531.287 592.057 531.233 592.216 531.142 592.355C531.051 592.495 530.927 592.609 530.781 592.688C530.635 592.768 530.471 592.809 530.305 592.81L530.305 592.81Z" fill="#2F2E41"/>
<path id="Vector_14" d="M367.126 597C366.909 597 366.698 596.93 366.525 596.799C366.351 596.668 366.225 596.485 366.165 596.276L333.566 482.855C333.493 482.6 333.525 482.327 333.653 482.096C333.782 481.864 333.997 481.693 334.251 481.62C334.506 481.547 334.779 481.577 335.011 481.705C335.243 481.833 335.414 482.048 335.488 482.302L368.088 595.724C368.124 595.85 368.135 595.982 368.12 596.112C368.105 596.243 368.065 596.369 368.001 596.484C367.938 596.599 367.852 596.7 367.749 596.782C367.647 596.864 367.529 596.925 367.403 596.961C367.313 596.987 367.22 597.001 367.126 597V597Z" fill="#2F2E41"/>
<path id="Vector_15" d="M374.126 465.5H342.126C336.161 465.493 330.442 463.121 326.224 458.902C322.006 454.684 319.633 448.965 319.626 443V438C319.633 432.035 322.006 426.316 326.224 422.098C330.442 417.879 336.161 415.507 342.126 415.5H374.126C380.092 415.507 385.811 417.879 390.029 422.098C394.247 426.316 396.62 432.035 396.626 438V443C396.62 448.965 394.247 454.684 390.029 458.902C385.811 463.121 380.092 465.493 374.126 465.5V465.5Z" fill="#CCCCCC"/>
<path id="Vector_16" d="M470.297 429.029C469.471 429.03 468.671 428.739 468.039 428.207C467.408 427.675 466.984 426.937 466.844 426.123C466.704 425.309 466.856 424.471 467.274 423.759C467.692 423.046 468.348 422.504 469.127 422.229L499.297 411.563C500.172 411.254 501.134 411.304 501.971 411.704C502.809 412.104 503.453 412.821 503.763 413.696C504.072 414.571 504.021 415.533 503.621 416.371C503.221 417.208 502.505 417.853 501.63 418.162L471.46 428.829C471.087 428.961 470.693 429.029 470.297 429.029V429.029Z" fill="#2F2E41"/>
<path id="Vector_17" d="M391.28 596.195C391.084 596.195 390.892 596.138 390.728 596.029C390.564 595.921 390.436 595.767 390.36 595.586C390.283 595.406 390.261 595.206 390.297 595.013C390.332 594.82 390.424 594.642 390.56 594.501L480.964 500.801C481.055 500.706 481.164 500.63 481.285 500.577C481.405 500.524 481.535 500.496 481.666 500.493C481.798 500.491 481.929 500.514 482.051 500.562C482.174 500.61 482.285 500.682 482.38 500.773C482.475 500.865 482.55 500.974 482.603 501.094C482.655 501.215 482.684 501.345 482.686 501.477C482.688 501.608 482.664 501.739 482.616 501.861C482.567 501.983 482.495 502.095 482.404 502.189L392 595.89C391.907 595.986 391.795 596.064 391.671 596.116C391.547 596.169 391.414 596.196 391.28 596.195V596.195Z" fill="#2F2E41"/>
<path id="Vector_18" d="M476.318 464.763C476.09 464.762 475.868 464.684 475.69 464.54C475.513 464.396 475.389 464.196 475.342 463.972L470.665 442.128C470.633 441.982 470.635 441.831 470.67 441.686C470.704 441.541 470.771 441.406 470.865 441.29C470.958 441.174 471.077 441.08 471.211 441.016C471.346 440.952 471.493 440.918 471.642 440.918H487.508V430.196C487.508 429.931 487.614 429.676 487.801 429.489C487.989 429.301 488.243 429.196 488.508 429.196C488.774 429.196 489.028 429.301 489.215 429.489C489.403 429.676 489.508 429.931 489.508 430.196V441.918C489.508 442.184 489.403 442.438 489.215 442.626C489.028 442.813 488.774 442.918 488.508 442.918H472.879L477.297 463.553C477.329 463.699 477.327 463.85 477.292 463.995C477.258 464.141 477.191 464.276 477.097 464.392C477.003 464.508 476.885 464.602 476.75 464.666C476.615 464.73 476.468 464.763 476.318 464.763L476.318 464.763Z" fill="#2F2E41"/>
<path id="Vector_19" d="M374.126 634C370.171 634 366.304 632.827 363.015 630.629C359.726 628.432 357.163 625.308 355.649 621.654C354.135 617.999 353.739 613.978 354.511 610.098C355.282 606.219 357.187 602.655 359.984 599.858C362.781 597.061 366.345 595.156 370.225 594.384C374.104 593.613 378.126 594.009 381.78 595.522C385.435 597.036 388.558 599.6 390.756 602.889C392.954 606.178 394.126 610.044 394.126 614C394.12 619.303 392.011 624.386 388.262 628.136C384.513 631.885 379.429 633.994 374.126 634V634ZM374.126 596C370.566 596 367.086 597.056 364.126 599.034C361.166 601.011 358.859 603.823 357.497 607.112C356.134 610.401 355.778 614.02 356.472 617.512C357.167 621.003 358.881 624.211 361.399 626.728C363.916 629.245 367.123 630.96 370.615 631.654C374.107 632.349 377.726 631.992 381.015 630.63C384.304 629.267 387.115 626.96 389.093 624C391.071 621.04 392.126 617.56 392.126 614C392.121 609.228 390.223 604.653 386.848 601.278C383.474 597.904 378.899 596.005 374.126 596V596Z" fill="#2F2E41"/>
<path id="Vector_20" d="M393.378 619H377.378C375.92 619 374.521 618.421 373.489 617.389C372.458 616.358 371.878 614.959 371.878 613.5C371.878 612.041 372.458 610.642 373.489 609.611C374.521 608.579 375.92 608 377.378 608H393.378C394.837 608 396.236 608.579 397.268 609.611C398.299 610.642 398.878 612.041 398.878 613.5C398.878 614.959 398.299 616.358 397.268 617.389C396.236 618.421 394.837 619 393.378 619V619Z" fill="#2F2E41"/>
<path id="Vector_21" d="M383.074 330.332C382.223 330.414 381.397 330.665 380.644 331.069C379.89 331.473 379.225 332.023 378.686 332.686L371.308 341.689L369.333 344.096C368.242 345.43 367.723 347.141 367.891 348.856C368.06 350.572 368.901 352.15 370.231 353.246L404.534 381.37L465.368 431.232C466.638 432.271 468.254 432.792 469.892 432.691C471.531 432.59 473.07 431.873 474.203 430.685C474.315 430.57 474.413 430.456 474.517 430.334L480.166 423.446L483.876 418.916C484.174 418.555 484.432 418.161 484.646 417.744C485.206 416.636 485.439 415.392 485.318 414.157C485.236 413.306 484.986 412.48 484.581 411.727C484.177 410.973 483.627 410.308 482.964 409.769L475.712 403.822L422.064 359.845L387.833 331.775C386.501 330.682 384.789 330.163 383.074 330.332V330.332Z" fill="#6C63FF"/>
<path id="Vector_22" d="M361.189 293.427C390.747 293.427 414.708 269.465 414.708 239.908C414.708 210.35 390.747 186.388 361.189 186.388C331.631 186.388 307.67 210.35 307.67 239.908C307.67 269.465 331.631 293.427 361.189 293.427Z" fill="#6C63FF"/>
<path id="Vector_23" d="M406.385 263.566L406.329 261.566C410.05 261.462 413.33 261.229 415.795 259.428C416.494 258.889 417.068 258.205 417.479 257.424C417.89 256.642 418.128 255.781 418.176 254.9C418.22 254.361 418.138 253.82 417.938 253.318C417.738 252.816 417.425 252.367 417.023 252.005C415.387 250.624 412.754 251.071 410.835 251.951L409.181 252.709L412.354 229.519L414.335 229.791L411.636 249.517C414.244 248.751 416.66 249.081 418.314 250.478C418.95 251.033 419.448 251.727 419.771 252.506C420.094 253.285 420.232 254.129 420.175 254.97C420.116 256.155 419.8 257.312 419.247 258.361C418.694 259.41 417.919 260.326 416.975 261.043C413.808 263.358 409.692 263.473 406.385 263.566Z" fill="#2F2E41"/>
<path id="Vector_24" d="M400.906 231.492H390.135V233.492H400.906V231.492Z" fill="#2F2E41"/>
<path id="Vector_25" d="M420.132 356.043L396.27 331.828C392.827 328.332 388.137 326.347 383.23 326.309C378.323 326.272 373.603 328.185 370.107 331.629C366.611 335.072 364.626 339.762 364.589 344.669C364.552 349.576 366.465 354.296 369.908 357.792L393.77 382.007C394.821 383.075 396.208 383.746 397.698 383.908C399.187 384.07 400.686 383.712 401.942 382.895C402.315 382.665 402.658 382.392 402.964 382.079L420.06 365.238C420.664 364.648 421.147 363.944 421.479 363.167C421.983 361.979 422.124 360.669 421.884 359.401C421.644 358.133 421.035 356.965 420.132 356.043Z" fill="#2F2E41"/>
<path id="Vector_26" d="M392.946 505.24H378.187C376.463 505.242 374.811 505.927 373.592 507.146C372.374 508.364 371.688 510.017 371.687 511.74V603.75C371.688 605.473 372.373 607.126 373.592 608.344C374.811 609.563 376.463 610.248 378.187 610.25H392.946C393.8 610.25 394.645 610.082 395.434 609.755C396.222 609.429 396.939 608.95 397.543 608.346C398.146 607.743 398.625 607.026 398.952 606.237C399.278 605.449 399.446 604.604 399.446 603.75V511.74C399.446 510.886 399.278 510.041 398.952 509.253C398.625 508.464 398.146 507.747 397.543 507.144C396.939 506.54 396.222 506.061 395.434 505.735C394.645 505.408 393.8 505.24 392.946 505.24V505.24Z" fill="#6C63FF"/>
<path id="Vector_27" d="M370.699 536.892C365.974 536.893 361.898 533.968 361.174 529.755L346.209 442.745C346.02 441.561 346.092 440.349 346.42 439.195C346.749 438.041 347.326 436.973 348.112 436.066C349.799 434.073 352.144 432.749 354.723 432.335L376.33 428.619C381.849 427.67 387.008 430.796 387.832 435.586L402.796 522.597C402.986 523.781 402.915 524.992 402.587 526.145C402.259 527.299 401.683 528.367 400.899 529.274C399.211 531.269 396.863 532.593 394.282 533.006L372.676 536.722C372.023 536.835 371.361 536.892 370.699 536.892V536.892Z" fill="#CCCCCC"/>
<path id="Vector_28" d="M392.636 319.657C390.095 316.763 387.135 314.264 383.856 312.243C376.784 307.948 368.662 305.694 360.388 305.73C352.114 305.766 344.011 308.091 336.977 312.446C334.177 314.215 331.613 316.332 329.347 318.747C323.442 324.876 320.114 333.036 320.046 341.546V437.814C320.042 438.108 320.069 438.401 320.126 438.689C320.597 441.685 323.526 444 327.046 444H394.117C397.966 444 401.117 441.225 401.117 437.814V341.546C401.066 333.457 398.048 325.668 392.636 319.657Z" fill="#2F2E41"/>
<g id="hair">
<path id="Vector_29" d="M373.218 244.172C366.122 246.529 358.157 241.684 357.705 234.052C357.577 232.281 357.845 230.503 358.489 228.848C359.133 227.193 360.137 225.702 361.429 224.484C363.81 222.453 366.73 221.159 369.834 220.761C376.572 219.592 383.497 220.54 390.264 219.533C397.09 218.517 403.107 214.991 406.098 208.579C407.532 205.432 408.289 202.02 408.318 198.562C408.348 195.105 407.651 191.679 406.271 188.509C403.166 181.408 397.075 176 390.364 172.36C377.448 165.354 361.946 163.974 347.714 167.082C333.42 170.118 320.531 177.793 311.052 188.915C309.918 190.281 308.843 191.694 307.827 193.154C307.696 193.382 307.627 193.64 307.627 193.904C307.627 194.167 307.696 194.425 307.827 194.654C307.958 194.882 308.147 195.072 308.374 195.205C308.601 195.337 308.859 195.408 309.122 195.411L317.896 194.355L316.601 192.098L307.065 209.242C306.478 210.296 307.473 211.93 308.759 211.445L322.743 206.175L321.284 203.668L307.404 220.567C306.188 222.047 308.299 224.181 309.525 222.688L323.405 205.789C324.248 204.763 323.496 202.698 321.946 203.282L307.961 208.552L309.655 210.756L319.191 193.612C319.689 192.717 319.082 191.212 317.896 191.355L309.122 192.411L310.417 194.668C318.613 182.93 331.185 174.663 344.911 170.866C358.687 167.054 374.024 167.665 386.985 173.99C393.834 177.333 400.099 182.354 403.389 189.378C404.795 192.418 405.463 195.747 405.34 199.094C405.217 202.441 404.307 205.712 402.682 208.642C395.156 221.491 377.609 214.888 365.867 218.63C359.168 220.765 354.359 226.657 354.694 233.873C354.886 237.531 356.438 240.986 359.045 243.559C361.653 246.132 365.127 247.638 368.788 247.782C370.56 247.87 372.333 247.627 374.016 247.064C375.839 246.459 375.058 243.56 373.218 244.172L373.218 244.172Z" fill="#2F2E41"/>
</g>
</g>
<g id="background">
<path id="Vector_30" d="M221.336 684.17C221.636 684.31 221.946 684.45 222.256 684.57C221.977 684.48 221.696 684.39 221.426 684.3C217.466 682.99 213.536 681.6 209.636 680.13C203.367 677.78 197.18 675.23 191.077 672.48C186.716 670.52 182.396 668.463 178.117 666.31C140.557 647.421 107.002 621.451 79.2964 589.83C76.7764 586.95 74.3063 584.02 71.8862 581.04C69.8266 578.51 67.81 575.943 65.8364 573.34C54.5346 558.468 44.5629 542.63 36.0366 526.01C11.7392 478.745 -0.620409 426.251 0.0366085 373.11C0.316388 355.11 2.20652 336.74 9.7666 320.41C16.0166 306.92 26.6763 294.95 40.0967 289.01C41.2163 288.51 42.3564 288.05 43.5166 287.65C45.2972 287.009 47.1176 286.485 48.9663 286.08C68.1465 281.86 88.3965 290.49 102.687 303.96C116.986 317.43 126.356 335.2 134.986 352.85C162.437 409.03 186.407 467.38 205.086 527.25C205.296 527.93 205.506 528.6 205.716 529.27C198.661 534.377 192.378 540.475 187.063 547.375L177.279 563.224C175.283 567.348 173.607 571.619 172.267 576C171.696 577.84 171.193 579.707 170.756 581.6C165.998 601.909 168.441 623.241 177.666 641.949C186.892 660.657 202.328 675.581 221.336 684.17H221.336Z" fill="#F2F2F2"/>
<path id="Vector_31" d="M170.996 573.4C171.416 574.27 171.836 575.14 172.266 576C171.696 577.84 171.193 579.707 170.756 581.6C170.307 580.67 169.847 579.73 169.396 578.8C162.077 563.79 154.957 548.69 148.036 533.5C136.117 507.47 124.606 481.26 113.077 455.07C100.936 427.49 88.7996 399.917 76.6663 372.35C64.5365 344.77 52.4032 317.197 40.2664 289.63C40.1819 289.432 40.1247 289.223 40.0965 289.01C39.8861 287.09 42.6063 285.7 43.5164 287.65C43.5286 287.665 43.5386 287.682 43.5462 287.7C45.0662 291.13 46.5796 294.563 48.0862 298C60.2161 325.57 72.3494 353.143 84.4861 380.72C96.5765 408.19 108.67 435.663 120.766 463.14C132.256 489.24 143.776 515.33 155.756 541.2C160.746 551.98 165.827 562.713 170.996 573.4Z" fill="white"/>
<path id="Vector_32" d="M223.566 687.31C224.386 688.46 225.196 689.61 225.997 690.77C224.606 691.08 223.227 691.38 221.827 691.67C220.716 691.89 219.606 692.11 218.497 692.31C178.24 699.799 136.64 693.991 99.9743 675.763C63.3084 657.535 33.5663 627.875 15.2363 591.26C10.5263 581.84 6.54632 571.79 6.06634 561.27C5.66644 552.58 7.9765 543.48 13.3363 536.77C13.7763 536.21 14.2465 535.67 14.7362 535.14C15.4928 534.332 16.2977 533.571 17.1464 532.86C22.5239 528.571 29.1599 526.165 36.0365 526.01C40.7041 525.808 45.3738 526.359 49.8666 527.64C60.9262 530.78 70.5863 537.47 79.8363 544.31C111.378 567.44 140.98 593.105 168.347 621.05C169.246 621.98 170.157 622.93 171.046 623.87C174.368 637.05 180.612 649.314 189.318 659.752C198.024 670.191 208.967 678.536 221.336 684.17C221.373 684.208 221.403 684.252 221.426 684.3C222.157 685.3 222.867 686.3 223.566 687.31Z" fill="#F2F2F2"/>
<path id="Vector_33" d="M13.5863 537.053L54.8197 570.171L96.0531 603.29C109.112 613.778 122.162 624.279 135.375 634.573C148.473 644.777 161.732 654.779 175.303 664.345C188.855 673.899 202.72 683.018 217.004 691.442C218.783 692.491 220.568 693.529 222.36 694.556C223.6 695.268 224.797 693.387 223.548 692.67C209.163 684.416 195.199 675.448 181.567 666.006C167.92 656.554 154.601 646.637 141.465 636.489C128.258 626.288 115.234 615.854 102.223 605.405C88.5279 594.407 74.8333 583.407 61.1396 572.407L19.9061 539.289L14.7749 535.167C13.659 534.271 12.4773 536.162 13.5863 537.053V537.053Z" fill="white"/>
<path id="Vector_34" d="M578.916 684.17C578.617 684.31 578.307 684.45 577.996 684.57C578.276 684.48 578.557 684.39 578.827 684.3C582.786 682.99 586.717 681.6 590.617 680.13C596.886 677.78 603.073 675.23 609.176 672.48C613.537 670.52 617.856 668.463 622.136 666.31C659.696 647.421 693.251 621.451 720.956 589.83C723.476 586.95 725.946 584.02 728.367 581.04C730.426 578.51 732.443 575.943 734.416 573.34C745.718 558.468 755.69 542.63 764.216 526.01C788.514 478.745 800.873 426.251 800.216 373.11C799.936 355.11 798.046 336.74 790.486 320.41C784.236 306.92 773.577 294.95 760.156 289.01C759.036 288.51 757.896 288.05 756.736 287.65C754.956 287.009 753.135 286.485 751.286 286.08C732.106 281.86 711.856 290.49 697.566 303.96C683.266 317.43 673.896 335.2 665.266 352.85C637.816 409.03 613.846 467.38 595.166 527.25C594.956 527.93 594.746 528.6 594.536 529.27C601.592 534.377 607.875 540.475 613.19 547.375L622.974 563.224C624.97 567.348 626.646 571.619 627.986 576C628.557 577.84 629.06 579.707 629.496 581.6C634.255 601.909 631.812 623.241 622.587 641.949C613.361 660.657 597.925 675.581 578.916 684.17V684.17Z" fill="#F2F2F2"/>
<path id="Vector_35" d="M629.256 573.4C628.836 574.27 628.416 575.14 627.986 576C628.557 577.84 629.06 579.707 629.497 581.6C629.946 580.67 630.406 579.73 630.856 578.8C638.176 563.79 645.296 548.69 652.216 533.5C664.136 507.47 675.646 481.26 687.176 455.07C699.316 427.49 711.453 399.917 723.586 372.35C735.716 344.77 747.85 317.197 759.986 289.63C760.071 289.432 760.128 289.223 760.156 289.01C760.367 287.09 757.646 285.7 756.736 287.65C756.724 287.665 756.714 287.682 756.707 287.7C755.187 291.13 753.673 294.563 752.167 298C740.037 325.57 727.903 353.143 715.767 380.72C703.676 408.19 691.583 435.663 679.486 463.14C667.997 489.24 656.477 515.33 644.497 541.2C639.506 551.98 634.426 562.713 629.256 573.4Z" fill="white"/>
<path id="Vector_36" d="M576.686 687.31C575.867 688.46 575.057 689.61 574.256 690.77C575.646 691.08 577.026 691.38 578.426 691.67C579.537 691.89 580.646 692.11 581.756 692.31C622.013 699.799 663.613 693.991 700.279 675.763C736.944 657.535 766.687 627.875 785.017 591.26C789.727 581.84 793.706 571.79 794.186 561.27C794.586 552.58 792.276 543.48 786.916 536.77C786.477 536.21 786.006 535.67 785.517 535.14C784.76 534.332 783.955 533.571 783.106 532.86C777.729 528.571 771.093 526.165 764.216 526.01C759.549 525.808 754.879 526.359 750.386 527.64C739.327 530.78 729.666 537.47 720.416 544.31C688.875 567.44 659.273 593.105 631.906 621.05C631.006 621.98 630.096 622.93 629.206 623.87C625.885 637.05 619.64 649.314 610.935 659.752C602.229 670.191 591.286 678.536 578.917 684.17C578.88 684.208 578.849 684.252 578.827 684.3C578.096 685.3 577.386 686.3 576.686 687.31Z" fill="#F2F2F2"/>
<path id="Vector_37" d="M786.667 537.053L745.433 570.171L704.2 603.29C691.141 613.778 678.091 624.279 664.877 634.573C651.78 644.777 638.521 654.779 624.95 664.345C611.398 673.899 597.533 683.018 583.249 691.442C581.47 692.491 579.685 693.529 577.893 694.556C576.653 695.268 575.456 693.387 576.705 692.67C591.09 684.416 605.054 675.448 618.686 666.006C632.333 656.554 645.652 646.637 658.788 636.489C671.994 626.288 685.018 615.854 698.03 605.405C711.725 594.407 725.42 583.407 739.113 572.407L780.347 539.289L785.478 535.167C786.594 534.271 787.776 536.162 786.667 537.053V537.053Z" fill="white"/>
<path id="Vector_38" d="M775.399 694.994H37.1055C36.7897 694.994 36.4868 694.868 36.2635 694.645C36.0402 694.422 35.9148 694.119 35.9148 693.803C35.9148 693.487 36.0402 693.184 36.2635 692.961C36.4868 692.738 36.7897 692.612 37.1055 692.612H775.399C775.715 692.612 776.018 692.738 776.241 692.961C776.465 693.184 776.59 693.487 776.59 693.803C776.59 694.119 776.465 694.422 776.241 694.645C776.018 694.868 775.715 694.994 775.399 694.994Z" fill="#3F3D56"/>
</g>
<g id="left-wheel">
<path id="Vector_39" d="M256.378 608.196C259.692 608.196 262.378 605.509 262.378 602.196C262.378 598.882 259.692 596.196 256.378 596.196C253.065 596.196 250.378 598.882 250.378 602.196C250.378 605.509 253.065 608.196 256.378 608.196Z" fill="#2F2E41"/>
<path id="Vector_40" d="M272.902 608C272.663 608 272.434 607.907 272.265 607.74C272.096 607.573 272 607.346 272 607.11C272 606.873 272.094 606.646 272.263 606.479C272.431 606.311 272.66 606.217 272.899 606.217L348.096 606H348.098C348.337 606 348.566 606.093 348.735 606.26C348.904 606.427 349 606.654 349 606.89C349 607.127 348.906 607.354 348.737 607.521C348.569 607.689 348.34 607.783 348.101 607.783L272.904 608H272.902Z" fill="#2F2E41"/>
<path id="Vector_41" d="M168.855 608C168.628 608 168.411 607.907 168.251 607.74C168.091 607.573 168 607.346 168 607.11C168 606.873 168.089 606.646 168.249 606.479C168.409 606.311 168.626 606.217 168.852 606.217L240.143 606H240.145C240.372 606 240.589 606.093 240.749 606.26C240.909 606.427 241 606.654 241 606.89C241 607.127 240.911 607.354 240.751 607.521C240.591 607.689 240.374 607.783 240.148 607.783L168.857 608H168.855Z" fill="#2F2E41"/>
<path id="Vector_42" d="M257 583.145C257 583.372 256.907 583.589 256.74 583.749C256.573 583.909 256.346 584 256.11 584C255.873 584 255.646 583.911 255.479 583.751C255.311 583.591 255.217 583.374 255.217 583.148L255 511.857L255 511.855C255 511.628 255.093 511.411 255.26 511.251C255.427 511.091 255.654 511 255.89 511C256.127 511 256.354 511.089 256.521 511.249C256.689 511.409 256.783 511.626 256.783 511.852L257 583.143L257 583.145Z" fill="#2F2E41"/>
<path id="Vector_43" d="M257 692.145C257 692.372 256.907 692.589 256.74 692.749C256.573 692.909 256.346 693 256.11 693C255.873 693 255.646 692.911 255.479 692.751C255.311 692.591 255.217 692.374 255.217 692.148L255 620.857L255 620.855C255 620.628 255.093 620.411 255.26 620.251C255.427 620.091 255.654 620 255.89 620C256.127 620 256.354 620.089 256.521 620.249C256.689 620.409 256.783 620.626 256.783 620.852L257 692.143L257 692.145Z" fill="#2F2E41"/>
<path id="Vector_44" d="M258.127 693C240.128 693 222.534 687.663 207.57 677.664C192.605 667.665 180.941 653.452 174.053 636.824C167.166 620.196 165.364 601.899 168.875 584.247C172.386 566.595 181.053 550.38 193.78 537.653C206.506 524.927 222.721 516.26 240.373 512.749C258.026 509.237 276.323 511.039 292.951 517.927C309.579 524.815 323.791 536.478 333.79 551.443C343.789 566.408 349.127 584.002 349.127 602C349.099 626.126 339.503 649.257 322.443 666.317C305.383 683.377 282.253 692.973 258.127 693V693ZM258.127 513C240.524 513 223.317 518.22 208.681 527.999C194.045 537.779 182.637 551.679 175.901 567.941C169.165 584.204 167.403 602.099 170.837 619.363C174.271 636.627 182.747 652.486 195.194 664.933C207.641 677.379 223.499 685.856 240.763 689.29C258.028 692.724 275.923 690.962 292.185 684.225C308.448 677.489 322.348 666.082 332.127 651.446C341.907 636.81 347.127 619.603 347.127 602C347.1 578.404 337.715 555.782 321.03 539.097C304.345 522.412 281.723 513.027 258.127 513V513Z" fill="#2F2E41"/>
</g>
<g id="right-wheel">
<path id="Vector_45" d="M538.378 608.196C541.692 608.196 544.378 605.509 544.378 602.196C544.378 598.882 541.692 596.196 538.378 596.196C535.065 596.196 532.378 598.882 532.378 602.196C532.378 605.509 535.065 608.196 538.378 608.196Z" fill="#2F2E41"/>
<path id="Vector_46" d="M450.82 608C450.603 608 450.394 607.907 450.241 607.74C450.087 607.573 450 607.346 450 607.11C450 606.873 450.086 606.646 450.239 606.479C450.392 606.311 450.6 606.217 450.817 606.217L519.178 606H519.18C519.397 606 519.606 606.093 519.759 606.26C519.913 606.427 520 606.654 520 606.89C520 607.127 519.914 607.354 519.761 607.521C519.608 607.689 519.4 607.783 519.183 607.783L450.822 608H450.82Z" fill="#2F2E41"/>
<path id="Vector_47" d="M558.855 608C558.628 608 558.411 607.907 558.251 607.74C558.091 607.573 558 607.346 558 607.11C558 606.873 558.089 606.646 558.249 606.479C558.409 606.311 558.626 606.217 558.852 606.217L630.143 606H630.145C630.372 606 630.589 606.093 630.749 606.26C630.909 606.427 631 606.654 631 606.89C631 607.127 630.911 607.354 630.751 607.521C630.591 607.689 630.374 607.783 630.148 607.783L558.857 608H558.855Z" fill="#2F2E41"/>
<path id="Vector_48" d="M540 583.145C540 583.372 539.907 583.589 539.74 583.749C539.573 583.909 539.346 584 539.11 584C538.873 584 538.646 583.911 538.479 583.751C538.311 583.591 538.217 583.374 538.217 583.148L538 511.857L538 511.855C538 511.628 538.093 511.411 538.26 511.251C538.427 511.091 538.654 511 538.89 511C539.127 511 539.354 511.089 539.521 511.249C539.689 511.409 539.783 511.626 539.783 511.852L540 583.143L540 583.145Z" fill="#2F2E41"/>
<path id="Vector_49" d="M540 692.145C540 692.372 539.907 692.589 539.74 692.749C539.573 692.909 539.346 693 539.11 693C538.873 693 538.646 692.911 538.479 692.751C538.311 692.591 538.217 692.374 538.217 692.148L538 620.857L538 620.855C538 620.628 538.093 620.411 538.26 620.251C538.427 620.091 538.654 620 538.89 620C539.127 620 539.354 620.089 539.521 620.249C539.689 620.409 539.783 620.626 539.783 620.852L540 692.143L540 692.145Z" fill="#2F2E41"/>
<path id="Vector_50" d="M540.126 692.711C522.128 692.711 504.534 687.374 489.57 677.375C474.605 667.376 462.941 653.164 456.053 636.536C449.166 619.908 447.364 601.611 450.875 583.958C454.386 566.306 463.053 550.091 475.78 537.365C488.506 524.638 504.721 515.971 522.373 512.46C540.025 508.949 558.323 510.751 574.951 517.638C591.579 524.526 605.791 536.19 615.79 551.155C625.789 566.119 631.126 583.713 631.126 601.711C631.099 625.838 621.503 648.968 604.443 666.028C587.383 683.088 564.253 692.684 540.126 692.711ZM540.126 512.711C522.524 512.711 505.317 517.931 490.681 527.711C476.045 537.49 464.637 551.39 457.901 567.653C451.165 583.915 449.402 601.81 452.836 619.075C456.271 636.339 464.747 652.197 477.194 664.644C489.641 677.091 505.499 685.567 522.763 689.001C540.028 692.435 557.923 690.673 574.185 683.937C590.448 677.201 604.348 665.793 614.127 651.157C623.907 636.521 629.126 619.314 629.126 601.711C629.1 578.115 619.715 555.493 603.03 538.808C586.345 522.123 563.723 512.738 540.126 512.711Z" fill="#2F2E41"/>
</g>
</g>
<defs>
<clipPath id="clip0_2_74">
<rect width="800.253" height="695.423" fill="white"/>
</clipPath>
</defs>
</svg>
